<?xml version="1.0" encoding="UTF-8" standalone="no"?>
<!-- Created with Inkscape (http://www.inkscape.org/) -->

<svg
   xmlns:dc="http://purl.org/dc/elements/1.1/"
   xmlns:cc="http://creativecommons.org/ns#"
   xmlns:rdf="http://www.w3.org/1999/02/22-rdf-syntax-ns#"
   xmlns:svg="http://www.w3.org/2000/svg"
   xmlns="http://www.w3.org/2000/svg"
   xmlns:sodipodi="http://sodipodi.sourceforge.net/DTD/sodipodi-0.dtd"
   xmlns:inkscape="http://www.inkscape.org/namespaces/inkscape"
   id="svg2"
   version="1.1"
   inkscape:version="0.91 r13725"
   xml:space="preserve"
   width="516.27905"
   height="492.77615"
   viewBox="0 0 516.27905 492.77615"
   sodipodi:docname="tagCloud.svg"><metadata
     id="metadata8"><rdf:RDF><cc:Work
         rdf:about=""><dc:format>image/svg+xml</dc:format><dc:type
           rdf:resource="http://purl.org/dc/dcmitype/StillImage" /><dc:title></dc:title></cc:Work></rdf:RDF></metadata><defs
     id="defs6"><clipPath
       clipPathUnits="userSpaceOnUse"
       id="clipPath20"><path
         d="m 0,0 7680,0 0,4545 L 0,4545 0,0 Z"
         id="path22"
         inkscape:connector-curvature="0" /></clipPath></defs><sodipodi:namedview
     pagecolor="#ffffff"
     bordercolor="#666666"
     borderopacity="1"
     objecttolerance="10"
     gridtolerance="10"
     guidetolerance="10"
     inkscape:pageopacity="0"
     inkscape:pageshadow="2"
     inkscape:window-width="1366"
     inkscape:window-height="715"
     id="namedview4"
     showgrid="false"
     inkscape:zoom="1.0135197"
     inkscape:cx="160.63814"
     inkscape:cy="318.56916"
     inkscape:window-x="-8"
     inkscape:window-y="-8"
     inkscape:window-maximized="1"
     inkscape:current-layer="g10"
     fit-margin-top="0"
     fit-margin-left="0"
     fit-margin-right="0"
     fit-margin-bottom="0"
     borderlayer="true" /><g
     id="g10"
     inkscape:groupmode="layer"
     inkscape:label="ink_ext_XXXXXX"
     transform="matrix(1.25,0,0,-1.25,-221.86046,529.05524)"><g
       id="g12"
       transform="scale(0.1,0.1)"><path
         d="m 1774.8837,290.23256 4130.2326,0 0,3942.20934 -4130.2326,0 0,-3942.20934 z"
         style="fill:#ffffff;fill-opacity:1;fill-rule:nonzero;stroke:none"
         id="path14"
         inkscape:connector-curvature="0" /><g
         id="g16"><g
           id="g18"
           clip-path="url(#clipPath20)"><g
             id="g24"
             transform="scale(10,10)"><text
               transform="matrix(1,0,0,-1,358.656,211.1)"
               style="font-variant:normal;font-weight:normal;font-size:48px;font-family:Helvetica;-inkscape-font-specification:Helvetica;writing-mode:lr-tb;fill:#666666;fill-opacity:1;fill-rule:nonzero;stroke:none"
               id="text26"><tspan
                 x="0 24"
                 y="0"
                 sodipodi:role="line"
                 id="tspan28">c#</tspan></text>
<text
               transform="matrix(1,0,0,-1,317.1798,168.35)"
               style="font-variant:normal;font-weight:normal;font-size:45px;font-family:Helvetica;-inkscape-font-specification:Helvetica;writing-mode:lr-tb;fill:#666666;fill-opacity:1;fill-rule:nonzero;stroke:none"
               id="text30"><tspan
                 x="0 9.9899998 34.110149 55.485149"
                 y="0"
                 sodipodi:role="line"
                 id="tspan32">java</tspan></text>
<text
               transform="matrix(1,0,0,-1,325.58957,263.8699)"
               style="font-variant:normal;font-weight:normal;font-size:44px;font-family:Helvetica;-inkscape-font-specification:Helvetica;writing-mode:lr-tb;fill:#666666;fill-opacity:1;fill-rule:nonzero;stroke:none"
               id="text34"><tspan
                 x="0 9.7679996 33.351948 54.251945 78.71595 100.71595 122.71595 138.02811 147.79611 172.2601"
                 y="0"
                 sodipodi:role="line"
                 id="tspan36">javascript</tspan></text>
</g><g
             id="g38"
             transform="scale(10,10)"><text
               transform="matrix(1,0,0,-1,419.52,167.12)"
               style="font-variant:normal;font-weight:normal;font-size:40px;font-family:Helvetica;-inkscape-font-specification:Helvetica;writing-mode:lr-tb;fill:#a77619;fill-opacity:1;fill-rule:nonzero;stroke:none"
               id="text40"><tspan
                 x="0 22.24 44.48"
                 y="0"
                 sodipodi:role="line"
                 id="tspan42">php</tspan></text>
</g><g
             id="g44"
             transform="scale(10,10)"><text
               transform="matrix(1,0,0,-1,319.34,127.61)"
               style="font-variant:normal;font-weight:normal;font-size:33px;font-family:Helvetica;-inkscape-font-specification:Helvetica;writing-mode:lr-tb;fill:#e7ab00;fill-opacity:1;fill-rule:nonzero;stroke:none"
               id="text46"><tspan
                 x="0 7.3260002 25.674 44.021999 62.369999 74.348846"
                 y="0"
                 sodipodi:role="line"
                 id="tspan48">jquery</tspan></text>
</g><g
             id="g50"
             transform="scale(10,10)"><text
               transform="matrix(1,0,0,-1,354.341,303.61)"
               style="font-variant:normal;font-weight:normal;font-size:32px;font-family:Helvetica;-inkscape-font-specification:Helvetica;writing-mode:lr-tb;fill:#67a615;fill-opacity:1;fill-rule:nonzero;stroke:none"
               id="text52"><tspan
                 x="0 17.792 35.584 53.375999 64.031998 81.823997 88.928001"
                 y="0"
                 sodipodi:role="line"
                 id="tspan54">android</tspan></text>
</g><g
             id="g56"
             transform="scale(10,10)"><text
               transform="matrix(1,0,0,-1,254.52,225.15)"
               style="font-variant:normal;font-weight:normal;font-size:27px;font-family:Helvetica;-inkscape-font-specification:Helvetica;writing-mode:lr-tb;fill:#e7278b;fill-opacity:1;fill-rule:nonzero;stroke:none"
               id="text58"><tspan
                 x="0 14.201941 27.701941 35.207939 50.21994 65.231941"
                 y="0"
                 sodipodi:role="line"
                 id="tspan60">python</tspan></text>
<text
               transform="matrix(1,0,0,-1,428.65,205.1801)"
               style="font-variant:normal;font-weight:normal;font-size:25px;font-family:Helvetica;-inkscape-font-specification:Helvetica;writing-mode:lr-tb;fill:#e7278b;fill-opacity:1;fill-rule:nonzero;stroke:none"
               id="text62"><tspan
                 x="0 12.5 27.1"
                 y="0"
                 sodipodi:role="line"
                 id="tspan64">c++</tspan></text>
<text
               transform="matrix(1,0,0,-1,459.2723,228.7899)"
               style="font-variant:normal;font-weight:normal;font-size:24px;font-family:Helvetica;-inkscape-font-specification:Helvetica;writing-mode:lr-tb;fill:#e7278b;fill-opacity:1;fill-rule:nonzero;stroke:none"
               id="text66"><tspan
                 x="0 13.344 20.016001 40.007999"
                 y="0"
                 sodipodi:role="line"
                 id="tspan68">html</tspan></text>
</g><g
             id="g70"
             transform="scale(10,10)"><text
               transform="matrix(1,0,0,-1,402.39,338.17)"
               style="font-variant:normal;font-weight:normal;font-size:21px;font-family:Helvetica;-inkscape-font-specification:Helvetica;writing-mode:lr-tb;fill:#756fb4;fill-opacity:1;fill-rule:nonzero;stroke:none"
               id="text72"><tspan
                 x="0 11.676 22.176001 33.117184 38.955185 50.631184 62.307186"
                 y="0"
                 sodipodi:role="line"
                 id="tspan74">asp.net</tspan><tspan
                 x="-125.6 -108.42187 -97.921867 -87.421867 -75.745865"
                 y="30.809799"
                 sodipodi:role="line"
                 id="tspan76">mysql</tspan></text>
<text
               transform="matrix(0,1,1,0,287.98,260.79)"
               style="font-variant:normal;font-weight:normal;font-size:20px;font-family:Helvetica;-inkscape-font-specification:Helvetica;writing-mode:lr-tb;fill:#756fb4;fill-opacity:1;fill-rule:nonzero;stroke:none"
               id="text78"><tspan
                 x="0 5.5599999 16.68 27.799999"
                 y="0"
                 sodipodi:role="line"
                 id="tspan80">.net</tspan></text>
<text
               transform="matrix(1,0,0,-1,427.92,138.32)"
               style="font-variant:normal;font-weight:normal;font-size:19px;font-family:Helvetica;-inkscape-font-specification:Helvetica;writing-mode:lr-tb;fill:#756fb4;fill-opacity:1;fill-rule:nonzero;stroke:none"
               id="text82"><tspan
                 x="0 9.5 19"
                 y="0"
                 sodipodi:role="line"
                 id="tspan84">css</tspan><tspan
                 x="-163.50101 -154.00101 -143.437"
                 y="-61.230099"
                 sodipodi:role="line"
                 id="tspan86">sql</tspan><tspan
                 x="-109.5983 -105.3803 -94.816299 -84.252296 -73.688301 -63.124298"
                 y="-197.3501"
                 sodipodi:role="line"
                 id="tspan88">iphone</tspan></text>
<text
               transform="matrix(1,0,0,-1,420.5577,229.9301)"
               style="font-variant:normal;font-weight:normal;font-size:18px;font-family:Helvetica;-inkscape-font-specification:Helvetica;writing-mode:lr-tb;fill:#756fb4;fill-opacity:1;fill-rule:nonzero;stroke:none"
               id="text90"><tspan
                 x="0 3.9960001 14.004"
                 y="0"
                 sodipodi:role="line"
                 id="tspan92">ios</tspan></text>
</g><g
             id="g94"
             transform="scale(10,10)"><text
               transform="matrix(1,0,0,-1,291.57,98.3602)"
               style="font-variant:normal;font-weight:normal;font-size:16px;font-family:Helvetica;-inkscape-font-specification:Helvetica;writing-mode:lr-tb;fill:#d95f00;fill-opacity:1;fill-rule:nonzero;stroke:none"
               id="text96"><tspan
                 x="0 8.8959999 17.792 21.344 30.24 38.240002 42.688 46.240002 53.839851 62.735851 72.079849"
                 y="0"
                 sodipodi:role="line"
                 id="tspan98">objective−c</tspan><tspan
                 x="31.9699 37.537865 46.433865 55.00975 63.00975 72.353752 81.249748 90.145752 99.489746 104.65779 113.55379 117.10579 120.65779"
                 y="21"
                 sodipodi:role="line"
                 id="tspan100">ruby−on−rails</tspan></text>
<text
               transform="matrix(1,0,0,-1,296.0399,187.7402)"
               style="font-variant:normal;font-weight:normal;font-size:15px;font-family:Helvetica;-inkscape-font-specification:Helvetica;writing-mode:lr-tb;fill:#d95f00;fill-opacity:1;fill-rule:nonzero;stroke:none"
               id="text102"><tspan
                 x="0"
                 y="0"
                 id="tspan104">c</tspan></text>
<text
               transform="matrix(1,0,0,-1,232.1102,168.0203)"
               style="font-variant:normal;font-weight:normal;font-size:13px;font-family:Helvetica;-inkscape-font-specification:Helvetica;writing-mode:lr-tb;fill:#d95f00;fill-opacity:1;fill-rule:nonzero;stroke:none"
               id="text106"><tspan
                 x="0 6.5 13.728 16.614 24.205999 30.705999 37.933998 42.653137 48.828136 56.056137"
                 y="0"
                 sodipodi:role="line"
                 id="tspan108">sql−server</tspan></text>
<text
               transform="matrix(1,0,0,-1,392.8602,106.1105)"
               style="font-variant:normal;font-weight:normal;font-size:12px;font-family:Helvetica;-inkscape-font-specification:Helvetica;writing-mode:lr-tb;fill:#d95f00;fill-opacity:1;fill-rule:nonzero;stroke:none"
               id="text110"><tspan
                 x="0 4.1761751 10.848175 17.280088"
                 y="0"
                 sodipodi:role="line"
                 id="tspan112">ruby</tspan><tspan
                 x="39.530102 46.202099 52.202099 58.453934 61.789936 68.461937 75.133934 78.469933 85.477936 95.473938 101.47394"
                 y="-15.8797"
                 sodipodi:role="line"
                 id="tspan114">asp.net−mvc</tspan><tspan
                 x="100.3199 106.9919 110.9879 114.86403 121.17612 127.17612"
                 y="-102.6699"
                 sodipodi:role="line"
                 id="tspan116">arrays</tspan></text>
<text
               transform="matrix(0,1,1,0,295.79,136.684)"
               style="font-variant:normal;font-weight:normal;font-size:12px;font-family:Helvetica;-inkscape-font-specification:Helvetica;writing-mode:lr-tb;fill:#d95f00;fill-opacity:1;fill-rule:nonzero;stroke:none"
               id="text118"><tspan
                 x="0 8.6639996 15.336"
                 y="0"
                 sodipodi:role="line"
                 id="tspan120">wpf</tspan></text>
<text
               transform="matrix(1,0,0,-1,427.54,100.59)"
               style="font-variant:normal;font-weight:normal;font-size:12px;font-family:Helvetica;-inkscape-font-specification:Helvetica;writing-mode:lr-tb;fill:#d95f00;fill-opacity:1;fill-rule:nonzero;stroke:none"
               id="text122"><tspan
                 x="0 6 15.996"
                 y="0"
                 sodipodi:role="line"
                 id="tspan124">xml</tspan><tspan
                 x="48.9496 52.945599 59.617599 66.289597 72.60154"
                 y="-45.3801"
                 sodipodi:role="line"
                 id="tspan126">regex</tspan><tspan
                 x="-180.74339 -174.0714 -171.40739 -164.7354"
                 y="-154.5601"
                 sodipodi:role="line"
                 id="tspan128">ajax</tspan></text>
</g><g
             id="g130"
             transform="scale(10,10)"><text
               transform="matrix(1,0,0,-1,476.864,306.45)"
               style="font-variant:normal;font-weight:normal;font-size:11px;font-family:Helvetica;-inkscape-font-specification:Helvetica;writing-mode:lr-tb;fill:#1e9e76;fill-opacity:1;fill-rule:nonzero;stroke:none"
               id="text132"><tspan
                 x="0 2.4419999 7.9419999 14.058"
                 y="0"
                 sodipodi:role="line"
                 id="tspan134">json</tspan><tspan
                 x="-123.084 -116.968 -114.526 -108.41 -102.294 -96.178001"
                 y="-51.650002"
                 sodipodi:role="line"
                 id="tspan136">django</tspan><tspan
                 x="-79.839897 -73.7239 -67.607903 -64.549896 -58.433899 -52.317902 -46.2019 -40.7019"
                 y="-54.380081"
                 sodipodi:role="line"
                 id="tspan138">database</tspan></text>
<text
               transform="matrix(0,1,1,0,513.42,168.29)"
               style="font-variant:normal;font-weight:normal;font-size:11px;font-family:Helvetica;-inkscape-font-specification:Helvetica;writing-mode:lr-tb;fill:#1e9e76;fill-opacity:1;fill-rule:nonzero;stroke:none"
               id="text140"><tspan
                 x="0 2.4419999 4.8839998 10.889844 17.005844"
                 y="0"
                 sodipodi:role="line"
                 id="tspan142">linux</tspan></text>
<text
               transform="matrix(1,0,0,-1,230,182.52)"
               style="font-variant:normal;font-weight:normal;font-size:10px;font-family:Helvetica;-inkscape-font-specification:Helvetica;writing-mode:lr-tb;fill:#1e9e76;fill-opacity:1;fill-rule:nonzero;stroke:none"
               id="text144"><tspan
                 x="0 7.2199998 9.4399996 15 20.559999 25.969927 33.189926"
                 y="0"
                 sodipodi:role="line"
                 id="tspan146">windows</tspan><tspan
                 x="73.019897 78.019897 83.180046 85.960045 91.520042 97.080048"
                 y="-24.85"
                 sodipodi:role="line"
                 id="tspan148">vb.net</tspan><tspan
                 x="66.915993 72.47599 78.035988 83.595993 89.155991 91.375992 96.935989 100.26599 102.48599"
                 y="-173.58"
                 sodipodi:role="line"
                 id="tspan150">angularjs</tspan><tspan
                 x="217.84499"
                 y="-49.880001"
                 id="tspan152">r</tspan><tspan
                 x="10.73999 15.73999 18.519991 22.000135 24.220137 29.780136"
                 y="-86.490196"
                 sodipodi:role="line"
                 id="tspan154">string</tspan><tspan
                 x="42.90049 48.460491 53.460491 55.680489 57.90049 63.460491 68.460487"
                 y="-149.91991"
                 sodipodi:role="line"
                 id="tspan156">eclipse</tspan><tspan
                 x="9.1203899 14.12039 19.12039 24.680389 30.240391"
                 y="-99.819901"
                 sodipodi:role="line"
                 id="tspan158">xcode</tspan></text>
<text
               transform="matrix(1,0,0,-1,396.52039,375.3001)"
               style="font-variant:normal;font-weight:normal;font-size:9px;font-family:Helvetica;-inkscape-font-specification:Helvetica;writing-mode:lr-tb;fill:#1e9e76;fill-opacity:1;fill-rule:nonzero;stroke:none"
               id="text160"><tspan
                 x="0 7.4070344 12.411035 14.409034 16.911034 18.909035 21.411034 26.415033 29.412035 34.416035 39.420033 44.424034 46.422035 51.426033"
                 y="0"
                 sodipodi:role="line"
                 id="tspan162">multithreading</tspan><tspan
                 x="-61.039799 -54.541801 -52.5438 -47.539799 -45.30777 -40.303772 -37.0816 -29.584599"
                 y="3.6800799"
                 sodipodi:role="line"
                 id="tspan164">winforms</tspan><tspan
                 x="-150.5898 -145.5858 -140.5818 -135.5778 -130.70894 -128.20692 -126.20893"
                 y="224.93008"
                 sodipodi:role="line"
                 id="tspan166">node.js</tspan><tspan
                 x="85.255203 89.755203 91.753197 96.253197 101.2572 106.2612 108.2592 113.5152 118.0152 120.5172 125.5212 130.52521 132.52319"
                 y="54.700081"
                 sodipodi:role="line"
                 id="tspan168">visual−studio</tspan><tspan
                 x="-196.6498 -191.6458 -186.6418 -183.64481 -181.4127 -176.40869 -173.18652 -165.68953 -160.68553 -155.68153 -151.18153"
                 y="172.54008"
                 sodipodi:role="line"
                 id="tspan170">performance</tspan></text>
<text
               transform="matrix(0,1,1,0,524.76,161.27)"
               style="font-variant:normal;font-weight:normal;font-size:9px;font-family:Helvetica;-inkscape-font-specification:Helvetica;writing-mode:lr-tb;fill:#1e9e76;fill-opacity:1;fill-rule:nonzero;stroke:none"
               id="text172"><tspan
                 x="0 4.7339802 9.2339802 13.73398 18.73798"
                 y="0"
                 sodipodi:role="line"
                 id="tspan174">excel</tspan></text>
<text
               transform="matrix(1,0,0,-1,248.86,124.79)"
               style="font-variant:normal;font-weight:normal;font-size:9px;font-family:Helvetica;-inkscape-font-specification:Helvetica;writing-mode:lr-tb;fill:#1e9e76;fill-opacity:1;fill-rule:nonzero;stroke:none"
               id="text176"><tspan
                 x="0 6.4078145 11.411815 14.408814 19.412815 24.416815 27.413815 32.417816 36.917816"
                 y="0"
                 sodipodi:role="line"
                 id="tspan178">wordpress</tspan><tspan
                 x="205.56 210.06 215.064 218.19597 220.19395 225.19797"
                 y="24.169901"
                 sodipodi:role="line"
                 id="tspan180">spring</tspan><tspan
                 x="190.0502 195.0542 197.0522 202.0562 207.0602 210.1924 212.1904 214.6924 219.69641"
                 y="41.650002"
                 sodipodi:role="line"
                 id="tspan182">algorithm</tspan><tspan
                 x="272.2467 274.24469 281.7417 286.7457 291.74969"
                 y="-98.900002"
                 sodipodi:role="line"
                 id="tspan184">image</tspan><tspan
                 x="3.6277001 8.6316996 13.1317"
                 y="-169.05"
                 sodipodi:role="line"
                 id="tspan186">osx</tspan><tspan
                 x="7.0898099 12.09381 15.000746 20.004745 24.504745 26.502747"
                 y="-11.46"
                 sodipodi:role="line"
                 id="tspan188">oracle</tspan><tspan
                 x="265.84882 267.8468 269.84482 274.84882"
                 y="-116.25"
                 sodipodi:role="line"
                 id="tspan190">linq</tspan><tspan
                 x="206.22031 208.45235 213.45634 216.67853 224.17554"
                 y="-232.61"
                 sodipodi:role="line"
                 id="tspan192">forms</tspan></text>
<text
               transform="matrix(0,1,1,0,260.96,314.748)"
               style="font-variant:normal;font-weight:normal;font-size:9px;font-family:Helvetica;-inkscape-font-specification:Helvetica;writing-mode:lr-tb;fill:#1e9e76;fill-opacity:1;fill-rule:nonzero;stroke:none"
               id="text194"><tspan
                 x="0 5.0040002 7.506 15.003 17.000999"
                 y="0"
                 sodipodi:role="line"
                 id="tspan196">html5</tspan></text>
<text
               transform="matrix(1,0,0,-1,525.27,191.8)"
               style="font-variant:normal;font-weight:normal;font-size:9px;font-family:Helvetica;-inkscape-font-specification:Helvetica;writing-mode:lr-tb;fill:#1e9e76;fill-opacity:1;fill-rule:nonzero;stroke:none"
               id="text198"><tspan
                 x="0 2.2320297 7.2360296 11.73603 16.74003 21.74403 26.74803 31.752029"
                 y="0"
                 sodipodi:role="line"
                 id="tspan200">facebook</tspan><tspan
                 x="-233.282 -228.278 -226.28"
                 y="-74.300003"
                 sodipodi:role="line"
                 id="tspan202">git</tspan></text>
<text
               transform="matrix(0,1,1,0,487.79,332.2)"
               style="font-variant:normal;font-weight:normal;font-size:8px;font-family:Helvetica;-inkscape-font-specification:Helvetica;writing-mode:lr-tb;fill:#1e9e76;fill-opacity:1;fill-rule:nonzero;stroke:none"
               id="text204"><tspan
                 x="0 4.448 8.8959999 11.680068"
                 y="0"
                 sodipodi:role="line"
                 id="tspan206">perl</tspan></text>
<text
               transform="matrix(1,0,0,-1,228.66,254.63)"
               style="font-variant:normal;font-weight:normal;font-size:8px;font-family:Helvetica;-inkscape-font-specification:Helvetica;writing-mode:lr-tb;fill:#1e9e76;fill-opacity:1;fill-rule:nonzero;stroke:none"
               id="text208"><tspan
                 x="0 5.776 9.776"
                 y="0"
                 sodipodi:role="line"
                 id="tspan210">wcf</tspan><tspan
                 x="83.919899 89.61599 94.063995 98.511993 103.18399 107.18399 111.632 114.53591 118.53591 120.31191 124.31191 128.7599"
                 y="191.58"
                 sodipodi:role="line"
                 id="tspan212">web−services</tspan></text>
<text
               transform="matrix(0,1,1,0,238.8,220.179)"
               style="font-variant:normal;font-weight:normal;font-size:8px;font-family:Helvetica;-inkscape-font-specification:Helvetica;writing-mode:lr-tb;fill:#1e9e76;fill-opacity:1;fill-rule:nonzero;stroke:none"
               id="text214"><tspan
                 x="0 4.448 8.8959999 12.896"
                 y="0"
                 sodipodi:role="line"
                 id="tspan216">bash</tspan></text>
<text
               transform="matrix(1,0,0,-1,505.971,304.01)"
               style="font-variant:normal;font-weight:normal;font-size:8px;font-family:Helvetica;-inkscape-font-specification:Helvetica;writing-mode:lr-tb;fill:#1e9e76;fill-opacity:1;fill-rule:nonzero;stroke:none"
               id="text218"><tspan
                 x="0 4.448 8.8959999 13.344 17.344 21.792"
                 y="0"
                 sodipodi:role="line"
                 id="tspan220">apache</tspan><tspan
                 x="-196.761 -192.761 -186.985 -185.209 -182.985"
                 y="-63.650002"
                 sodipodi:role="line"
                 id="tspan222">swift</tspan><tspan
                 x="10.775 14.775 20.551001 22.327 26.775"
                 y="158.62"
                 sodipodi:role="line"
                 id="tspan224">swing</tspan><tspan
                 x="-125.482 -121.034 -116.586 -114.362 -112.586 -110.362 -106.362 -101.69 -99.466003 -96.882004 -92.433998 -85.769997 -81.48201 -75.785889 -71.337891 -68.553871"
                 y="243.72"
                 sodipodi:role="line"
                 id="tspan226">entity−framework</tspan><tspan
                 x="-81.8918 -77.443802 -73.443802 -71.219803 -69.443802 -64.995796 -60.547798 -56.547798 -52.547798 -49.763683 -47.987682 -43.539684 -41.315681 -36.643684"
                 y="-87.849998"
                 sodipodi:role="line"
                 id="tspan228">actionscript−3</tspan><tspan
                 x="25.7582 30.2062 31.982201 36.430199 40.878201 43.742199 48.190201 52.638199 54.862202"
                 y="120.64"
                 sodipodi:role="line"
                 id="tspan230">hibernate</tspan><tspan
                 x="-210.6098 -208.3858 -206.6098 -202.1618 -198.1618"
                 y="219.30991"
                 sodipodi:role="line"
                 id="tspan232">flash</tspan><tspan
                 x="-151.38361 -147.38361 -142.93559 -138.93559 -134.48759"
                 y="-80.120102"
                 sodipodi:role="line"
                 id="tspan234">cocoa</tspan><tspan
                 x="-4.1636 -0.1636 4.2844 8.2844 12.7324 17.180401 21.8524 24.076401 28.524401 32.972401 36.972401"
                 y="-28.2099"
                 sodipodi:role="line"
                 id="tspan236">cocoa−touch</tspan><tspan
                 x="-173.8046 -169.8046 -168.02859 -164.02859 -159.5806 -155.1326 -153.3566 -148.6846 -144.6846 -142.4606 -138.0126 -133.56461 -131.7886 -127.3406 -122.6686 -118.2206 -113.7726 -109.3246"
                 y="254.8501"
                 sodipodi:role="line"
                 id="tspan238">visual−studio−2010</tspan><tspan
                 x="-263.66241 -259.66241 -257.88641 -256.11041 -252.31046 -247.86244 -245.07843 -243.30243 -241.52643 -237.07843 -232.63043"
                 y="192.6403"
                 sodipodi:role="line"
                 id="tspan240">silverlight</tspan><tspan
                 x="-117.7424 -114.9584 -110.5104 -106.22246 -102.22246 -97.550461 -93.102455 -88.654457 -83.98246 -81.398636 -76.950638 -75.174637 -73.398636 -69.398636 -64.726631"
                 y="-99.359703"
                 sodipodi:role="line"
                 id="tspan242">ruby−on−rails−3</tspan><tspan
                 x="35.377602 39.377602 43.8256 47.8256 52.273602 55.057667 56.833668 59.057667"
                 y="68.020302"
                 sodipodi:role="line"
                 id="tspan244">security</tspan><tspan
                 x="-264.45041 -260.45041 -256.00241"
                 y="1.0703"
                 sodipodi:role="line"
                 id="tspan246">vba</tspan><tspan
                 x="-207.29919 -202.8512 -198.4032 -196.6272 -194.4032 -189.7312 -187.5072 -183.0592 -179.0592 -176.83521 -175.0592 -170.61121"
                 y="-79.650002"
                 sodipodi:role="line"
                 id="tspan248">unit−testing</tspan><tspan
                 x="-226.7601 -224.9841 -223.2081 -219.2081"
                 y="-48.069901"
                 sodipodi:role="line"
                 id="tspan250">list</tspan><tspan
                 x="-286.79599 -284.57199 -280.57199 -276.12399"
                 y="59.7701"
                 sodipodi:role="line"
                 id="tspan252">tsql</tspan><tspan
                 x="-229.864 -227.64 -225.864 -224.088"
                 y="120.2201"
                 sodipodi:role="line"
                 id="tspan254">file</tspan></text>
<text
               transform="matrix(0,1,1,0,344.82,205.734)"
               style="font-variant:normal;font-weight:normal;font-size:8px;font-family:Helvetica;-inkscape-font-specification:Helvetica;writing-mode:lr-tb;fill:#1e9e76;fill-opacity:1;fill-rule:nonzero;stroke:none"
               id="text256"><tspan
                 x="0 4.448"
                 y="0"
                 sodipodi:role="line"
                 id="tspan258">qt</tspan></text>
<text
               transform="matrix(1,0,0,-1,487.179,107.49)"
               style="font-variant:normal;font-weight:normal;font-size:8px;font-family:Helvetica;-inkscape-font-specification:Helvetica;writing-mode:lr-tb;fill:#1e9e76;fill-opacity:1;fill-rule:nonzero;stroke:none"
               id="text260"><tspan
                 x="0 4.448 8.8959999 10.672 15.12 19.568001"
                 y="0"
                 sodipodi:role="line"
                 id="tspan262">delphi</tspan><tspan
                 x="-37.118698 -33.118698 -28.6707 -26.894699 -22.2227 -18.2227 -13.7747 -10.870661 -7.0706606 -2.6226609 0.0413392 4.7133393 9.1613388 13.609339 18.057339"
                 y="36.819901"
                 sodipodi:role="line"
                 id="tspan264">sql−server−2008</tspan><tspan
                 x="-195.65871 -193.43469 -191.65871 -187.45088"
                 y="-6.6602001"
                 sodipodi:role="line"
                 id="tspan266">flex</tspan><tspan
                 x="-95.491699 -88.827698 -84.3797 -82.155701 -80.3797 -75.931702"
                 y="13.1796"
                 sodipodi:role="line"
                 id="tspan268">matlab</tspan><tspan
                 x="25.1903 29.6383 34.0863 38.0863 40.310299 44.758301 47.422298 51.8703 55.8703 60.318298"
                 y="-21.0501"
                 sodipodi:role="line"
                 id="tspan270">postgresql</tspan><tspan
                 x="-147.23869 -143.43871 -138.99071 -137.21471 -135.43871 -130.99071 -126.5427 -124.3187 -122.5427 -118.0947"
                 y="-285.9101"
                 sodipodi:role="line"
                 id="tspan272">validation</tspan><tspan
                 x="-262.8287 -258.38071 -254.38071 -249.93269 -247.26871 -242.59669 -240.82069 -236.3727 -234.1487 -229.7007 -227.0367 -225.05252 -220.60452 -216.60452"
                 y="6.2999001"
                 sodipodi:role="line"
                 id="tspan274">user−interface</tspan></text>
<text
               transform="matrix(0,1,1,0,541.54,201.298)"
               style="font-variant:normal;font-weight:normal;font-size:8px;font-family:Helvetica;-inkscape-font-specification:Helvetica;writing-mode:lr-tb;fill:#1e9e76;fill-opacity:1;fill-rule:nonzero;stroke:none"
               id="text276"><tspan
                 x="0 4.448 8.8959999"
                 y="0"
                 sodipodi:role="line"
                 id="tspan278">oop</tspan></text>
<text
               transform="matrix(1,0,0,-1,529.175,174.06)"
               style="font-variant:normal;font-weight:normal;font-size:8px;font-family:Helvetica;-inkscape-font-specification:Helvetica;writing-mode:lr-tb;fill:#1e9e76;fill-opacity:1;fill-rule:nonzero;stroke:none"
               id="text280"><tspan
                 x="0 4 8.448 10.224 12 14.224"
                 y="0"
                 sodipodi:role="line"
                 id="tspan282">sqlite</tspan><tspan
                 x="-38.7094 -32.045399 -27.597401 -23.149401 -18.701401 -14.2534 -9.8053999"
                 y="-177.62"
                 sodipodi:role="line"
                 id="tspan284">mongodb</tspan><tspan
                 x="12.1082 14.3322 18.780199 23.228201 27.228201 29.4522 31.228201 35.676201"
                 y="-77.750099"
                 sodipodi:role="line"
                 id="tspan286">function</tspan><tspan
                 x="-249.5898 -245.5898 -241.5898 -237.1418 -235.3658"
                 y="-74.620018"
                 sodipodi:role="line"
                 id="tspan288">scala</tspan></text>
<text
               transform="matrix(0,1,1,0,231.31,283.395)"
               style="font-variant:normal;font-weight:normal;font-size:8px;font-family:Helvetica;-inkscape-font-specification:Helvetica;writing-mode:lr-tb;fill:#1e9e76;fill-opacity:1;fill-rule:nonzero;stroke:none"
               id="text290"><tspan
                 x="0 2.224 6.6719999 8.8959999 13.344 17.344 21.344 25.792 29.792"
                 y="0"
                 sodipodi:role="line"
                 id="tspan292">.htaccess</tspan></text>
<text
               transform="matrix(1,0,0,-1,182.38,222.51)"
               style="font-variant:normal;font-weight:normal;font-size:8px;font-family:Helvetica;-inkscape-font-specification:Helvetica;writing-mode:lr-tb;fill:#1e9e76;fill-opacity:1;fill-rule:nonzero;stroke:none"
               id="text294"><tspan
                 x="0 4.448 6.224 8.448 12.896 17.18399 18.95999 23.167976 27.167976 28.943975 33.23204"
                 y="0"
                 sodipodi:role="line"
                 id="tspan296">uitableview</tspan><tspan
                 x="34.448002 38.448002 40.223999 44.672001 48.672001"
                 y="-44.739799"
                 sodipodi:role="line"
                 id="tspan298">class</tspan><tspan
                 x="120.9945 125.4425 129.8905"
                 y="146.12019"
                 sodipodi:role="line"
                 id="tspan300">api</tspan></text>
<text
               transform="matrix(0,1,1,0,482.62,205.327)"
               style="font-variant:normal;font-weight:normal;font-size:8px;font-family:Helvetica;-inkscape-font-specification:Helvetica;writing-mode:lr-tb;fill:#1e9e76;fill-opacity:1;fill-rule:nonzero;stroke:none"
               id="text302"><tspan
                 x="0 4 8.448 12.896 14.672"
                 y="0"
                 sodipodi:role="line"
                 id="tspan304">shell</tspan></text>
<text
               transform="matrix(1,0,0,-1,540.64,266.78)"
               style="font-variant:normal;font-weight:normal;font-size:8px;font-family:Helvetica;-inkscape-font-specification:Helvetica;writing-mode:lr-tb;fill:#1e9e76;fill-opacity:1;fill-rule:nonzero;stroke:none"
               id="text306"><tspan
                 x="0 4.448 8.8959999 13.18399 17.63199 22.07999 26.52799 28.303991 32.751991"
                 y="0"
                 sodipodi:role="line"
                 id="tspan308">debugging</tspan><tspan
                 x="-225.85001 -224.07401 -219.62601 -217.40199 -212.95399 -210.08986 -205.64186 -201.19385 -198.96985 -194.29785 -190.08984 -186.08984 -181.64185 -179.86584 -175.41785 -172.75385 -168.30585"
                 y="-139.45"
                 sodipodi:role="line"
                 id="tspan310">internet−explorer</tspan><tspan
                 x="-230.6418 -226.6418 -224.8658 -220.8658 -216.4178 -211.9698 -210.1938 -205.5218 -201.5218 -199.29781 -194.84979 -190.40179 -188.62579 -184.1778 -179.5058 -175.0578 -170.6098 -166.1618"
                 y="229.75999"
                 sodipodi:role="line"
                 id="tspan312">visual−studio−2008</tspan><tspan
                 x="-10.8898 -6.8898001 -2.4418001 1.5582 5.3980927 9.8460932 12.070093"
                 y="108.41"
                 sodipodi:role="line"
                 id="tspan314">sockets</tspan><tspan
                 x="-50.759701 -48.535702 -42.759701 -40.9837 -38.759701 -36.535702 -32.0877 -29.4237 -24.751699 -20.303699 -15.8557 -11.4077 -9.1836996 -5.1837001 -2.9597001 -0.37572959 4.0722704"
                 y="-94.720001"
                 sodipodi:role="line"
                 id="tspan316">twitter−bootstrap</tspan></text>
</g></g></g></g></g></svg>